<mxfile host="Electron" agent="Mozilla/5.0 (Macintosh; Intel Mac OS X 10_15_7) AppleWebKit/537.36 (KHTML, like Gecko) draw.io/26.2.2 Chrome/134.0.6998.178 Electron/35.1.2 Safari/537.36" version="26.2.2">
  <diagram name="Page-1" id="htir4Il05GmgyJO_kmse">
    <mxGraphModel dx="917" dy="869" grid="1" gridSize="10" guides="1" tooltips="1" connect="1" arrows="1" fold="1" page="1" pageScale="1" pageWidth="1200" pageHeight="1600" math="0" shadow="0">
      <root>
        <mxCell id="0" />
        <mxCell id="1" parent="0" />
        <mxCell id="5YZUl4ojEWaB57wclvau-3" value="" style="edgeStyle=orthogonalEdgeStyle;rounded=0;orthogonalLoop=1;jettySize=auto;html=1;" edge="1" parent="1" source="5YZUl4ojEWaB57wclvau-1" target="5YZUl4ojEWaB57wclvau-2">
          <mxGeometry relative="1" as="geometry" />
        </mxCell>
        <mxCell id="5YZUl4ojEWaB57wclvau-1" value="showAllBlogEntries()" style="ellipse;whiteSpace=wrap;html=1;" vertex="1" parent="1">
          <mxGeometry x="480" y="230" width="210" height="80" as="geometry" />
        </mxCell>
        <mxCell id="5YZUl4ojEWaB57wclvau-7" value="1" style="edgeStyle=orthogonalEdgeStyle;rounded=0;orthogonalLoop=1;jettySize=auto;html=1;" edge="1" parent="1" source="5YZUl4ojEWaB57wclvau-2" target="5YZUl4ojEWaB57wclvau-6">
          <mxGeometry relative="1" as="geometry" />
        </mxCell>
        <mxCell id="5YZUl4ojEWaB57wclvau-13" value="0" style="edgeStyle=orthogonalEdgeStyle;rounded=0;orthogonalLoop=1;jettySize=auto;html=1;" edge="1" parent="1" source="5YZUl4ojEWaB57wclvau-2" target="5YZUl4ojEWaB57wclvau-12">
          <mxGeometry x="0.011" relative="1" as="geometry">
            <mxPoint as="offset" />
          </mxGeometry>
        </mxCell>
        <mxCell id="5YZUl4ojEWaB57wclvau-2" value="Has user clicked submit to add comment?" style="rhombus;whiteSpace=wrap;html=1;" vertex="1" parent="1">
          <mxGeometry x="440" y="390" width="290" height="120" as="geometry" />
        </mxCell>
        <mxCell id="5YZUl4ojEWaB57wclvau-9" value="1" style="edgeStyle=orthogonalEdgeStyle;rounded=0;orthogonalLoop=1;jettySize=auto;html=1;" edge="1" parent="1" source="5YZUl4ojEWaB57wclvau-6" target="5YZUl4ojEWaB57wclvau-8">
          <mxGeometry relative="1" as="geometry" />
        </mxCell>
        <mxCell id="5YZUl4ojEWaB57wclvau-11" value="0" style="edgeStyle=orthogonalEdgeStyle;rounded=0;orthogonalLoop=1;jettySize=auto;html=1;" edge="1" parent="1" source="5YZUl4ojEWaB57wclvau-6" target="5YZUl4ojEWaB57wclvau-10">
          <mxGeometry relative="1" as="geometry" />
        </mxCell>
        <mxCell id="5YZUl4ojEWaB57wclvau-6" value="Check that message is not empty" style="rhombus;whiteSpace=wrap;html=1;" vertex="1" parent="1">
          <mxGeometry x="820" y="410" width="240" height="80" as="geometry" />
        </mxCell>
        <mxCell id="5YZUl4ojEWaB57wclvau-16" style="edgeStyle=orthogonalEdgeStyle;rounded=0;orthogonalLoop=1;jettySize=auto;html=1;exitX=0;exitY=0.5;exitDx=0;exitDy=0;entryX=1;entryY=0.5;entryDx=0;entryDy=0;" edge="1" parent="1" source="5YZUl4ojEWaB57wclvau-8" target="5YZUl4ojEWaB57wclvau-12">
          <mxGeometry relative="1" as="geometry" />
        </mxCell>
        <mxCell id="5YZUl4ojEWaB57wclvau-8" value="Add comment to MySQL database" style="rounded=0;whiteSpace=wrap;html=1;" vertex="1" parent="1">
          <mxGeometry x="880" y="580" width="120" height="60" as="geometry" />
        </mxCell>
        <mxCell id="5YZUl4ojEWaB57wclvau-18" style="edgeStyle=orthogonalEdgeStyle;rounded=0;orthogonalLoop=1;jettySize=auto;html=1;entryX=1;entryY=0.5;entryDx=0;entryDy=0;" edge="1" parent="1" source="5YZUl4ojEWaB57wclvau-10" target="5YZUl4ojEWaB57wclvau-12">
          <mxGeometry relative="1" as="geometry">
            <Array as="points">
              <mxPoint x="1200" y="710" />
              <mxPoint x="810" y="710" />
              <mxPoint x="810" y="610" />
            </Array>
          </mxGeometry>
        </mxCell>
        <mxCell id="5YZUl4ojEWaB57wclvau-10" value="Don&#39;t add comment to database" style="rounded=0;whiteSpace=wrap;html=1;" vertex="1" parent="1">
          <mxGeometry x="1130" y="420" width="140" height="60" as="geometry" />
        </mxCell>
        <mxCell id="5YZUl4ojEWaB57wclvau-15" value="" style="edgeStyle=orthogonalEdgeStyle;rounded=0;orthogonalLoop=1;jettySize=auto;html=1;" edge="1" parent="1" source="5YZUl4ojEWaB57wclvau-12" target="5YZUl4ojEWaB57wclvau-14">
          <mxGeometry relative="1" as="geometry" />
        </mxCell>
        <mxCell id="5YZUl4ojEWaB57wclvau-12" value="Fetch records of blog posts from database and get number of records fetched" style="rounded=0;whiteSpace=wrap;html=1;" vertex="1" parent="1">
          <mxGeometry x="487.5" y="580" width="195" height="60" as="geometry" />
        </mxCell>
        <mxCell id="5YZUl4ojEWaB57wclvau-22" value="" style="edgeStyle=orthogonalEdgeStyle;rounded=0;orthogonalLoop=1;jettySize=auto;html=1;" edge="1" parent="1" source="5YZUl4ojEWaB57wclvau-14" target="5YZUl4ojEWaB57wclvau-21">
          <mxGeometry relative="1" as="geometry" />
        </mxCell>
        <mxCell id="5YZUl4ojEWaB57wclvau-14" value="Use usort() to sort blog posts in ascending order by date posted" style="rounded=0;whiteSpace=wrap;html=1;" vertex="1" parent="1">
          <mxGeometry x="525" y="690" width="120" height="60" as="geometry" />
        </mxCell>
        <mxCell id="5YZUl4ojEWaB57wclvau-25" value="0" style="edgeStyle=orthogonalEdgeStyle;rounded=0;orthogonalLoop=1;jettySize=auto;html=1;" edge="1" parent="1" source="5YZUl4ojEWaB57wclvau-21" target="5YZUl4ojEWaB57wclvau-24">
          <mxGeometry relative="1" as="geometry" />
        </mxCell>
        <mxCell id="5YZUl4ojEWaB57wclvau-29" value="" style="edgeStyle=orthogonalEdgeStyle;rounded=0;orthogonalLoop=1;jettySize=auto;html=1;" edge="1" parent="1" source="5YZUl4ojEWaB57wclvau-21" target="5YZUl4ojEWaB57wclvau-28">
          <mxGeometry relative="1" as="geometry" />
        </mxCell>
        <mxCell id="5YZUl4ojEWaB57wclvau-21" value="Check if number of rows fetched &amp;gt; 0" style="rhombus;whiteSpace=wrap;html=1;" vertex="1" parent="1">
          <mxGeometry x="458.75" y="810" width="252.5" height="100" as="geometry" />
        </mxCell>
        <mxCell id="5YZUl4ojEWaB57wclvau-52" style="edgeStyle=orthogonalEdgeStyle;rounded=0;orthogonalLoop=1;jettySize=auto;html=1;entryX=0;entryY=0.5;entryDx=0;entryDy=0;" edge="1" parent="1" source="5YZUl4ojEWaB57wclvau-24" target="5YZUl4ojEWaB57wclvau-50">
          <mxGeometry relative="1" as="geometry">
            <Array as="points">
              <mxPoint x="200" y="860" />
              <mxPoint x="200" y="1740" />
            </Array>
          </mxGeometry>
        </mxCell>
        <mxCell id="5YZUl4ojEWaB57wclvau-24" value="Echo suitable error message to user" style="rounded=0;whiteSpace=wrap;html=1;" vertex="1" parent="1">
          <mxGeometry x="250" y="830" width="130" height="60" as="geometry" />
        </mxCell>
        <mxCell id="5YZUl4ojEWaB57wclvau-31" value="1" style="edgeStyle=orthogonalEdgeStyle;rounded=0;orthogonalLoop=1;jettySize=auto;html=1;" edge="1" parent="1" source="5YZUl4ojEWaB57wclvau-28" target="5YZUl4ojEWaB57wclvau-30">
          <mxGeometry relative="1" as="geometry" />
        </mxCell>
        <mxCell id="5YZUl4ojEWaB57wclvau-51" value="0" style="edgeStyle=orthogonalEdgeStyle;rounded=0;orthogonalLoop=1;jettySize=auto;html=1;entryX=1;entryY=0.5;entryDx=0;entryDy=0;" edge="1" parent="1" source="5YZUl4ojEWaB57wclvau-28" target="5YZUl4ojEWaB57wclvau-50">
          <mxGeometry relative="1" as="geometry">
            <Array as="points">
              <mxPoint x="920" y="1010" />
              <mxPoint x="920" y="1740" />
            </Array>
          </mxGeometry>
        </mxCell>
        <mxCell id="5YZUl4ojEWaB57wclvau-28" value="Does next row (record) exist?" style="rhombus;whiteSpace=wrap;html=1;" vertex="1" parent="1">
          <mxGeometry x="482.5" y="970" width="205" height="80" as="geometry" />
        </mxCell>
        <mxCell id="5YZUl4ojEWaB57wclvau-33" value="" style="edgeStyle=orthogonalEdgeStyle;rounded=0;orthogonalLoop=1;jettySize=auto;html=1;" edge="1" parent="1" source="5YZUl4ojEWaB57wclvau-30" target="5YZUl4ojEWaB57wclvau-32">
          <mxGeometry relative="1" as="geometry" />
        </mxCell>
        <mxCell id="5YZUl4ojEWaB57wclvau-30" value="Echo necessary HTML elements for the Blog Post" style="rounded=0;whiteSpace=wrap;html=1;" vertex="1" parent="1">
          <mxGeometry x="525" y="1120" width="120" height="60" as="geometry" />
        </mxCell>
        <mxCell id="5YZUl4ojEWaB57wclvau-35" value="1" style="edgeStyle=orthogonalEdgeStyle;rounded=0;orthogonalLoop=1;jettySize=auto;html=1;" edge="1" parent="1" source="5YZUl4ojEWaB57wclvau-32" target="5YZUl4ojEWaB57wclvau-34">
          <mxGeometry relative="1" as="geometry" />
        </mxCell>
        <mxCell id="5YZUl4ojEWaB57wclvau-37" value="0" style="edgeStyle=orthogonalEdgeStyle;rounded=0;orthogonalLoop=1;jettySize=auto;html=1;" edge="1" parent="1" source="5YZUl4ojEWaB57wclvau-32" target="5YZUl4ojEWaB57wclvau-36">
          <mxGeometry relative="1" as="geometry" />
        </mxCell>
        <mxCell id="5YZUl4ojEWaB57wclvau-32" value="Check if admin is enabled" style="rhombus;whiteSpace=wrap;html=1;" vertex="1" parent="1">
          <mxGeometry x="483.13" y="1220" width="203.75" height="80" as="geometry" />
        </mxCell>
        <mxCell id="5YZUl4ojEWaB57wclvau-46" style="edgeStyle=orthogonalEdgeStyle;rounded=0;orthogonalLoop=1;jettySize=auto;html=1;entryX=0;entryY=0.5;entryDx=0;entryDy=0;" edge="1" parent="1" source="5YZUl4ojEWaB57wclvau-34" target="5YZUl4ojEWaB57wclvau-36">
          <mxGeometry relative="1" as="geometry">
            <Array as="points">
              <mxPoint x="340" y="1400" />
            </Array>
          </mxGeometry>
        </mxCell>
        <mxCell id="5YZUl4ojEWaB57wclvau-34" value="Echo corresponding close button to allow for deletion." style="rounded=0;whiteSpace=wrap;html=1;" vertex="1" parent="1">
          <mxGeometry x="280" y="1230" width="120" height="60" as="geometry" />
        </mxCell>
        <mxCell id="5YZUl4ojEWaB57wclvau-39" value="1" style="edgeStyle=orthogonalEdgeStyle;rounded=0;orthogonalLoop=1;jettySize=auto;html=1;" edge="1" parent="1" source="5YZUl4ojEWaB57wclvau-36" target="5YZUl4ojEWaB57wclvau-38">
          <mxGeometry relative="1" as="geometry" />
        </mxCell>
        <mxCell id="5YZUl4ojEWaB57wclvau-42" value="0" style="edgeStyle=orthogonalEdgeStyle;rounded=0;orthogonalLoop=1;jettySize=auto;html=1;" edge="1" parent="1" source="5YZUl4ojEWaB57wclvau-36" target="5YZUl4ojEWaB57wclvau-41">
          <mxGeometry relative="1" as="geometry" />
        </mxCell>
        <mxCell id="5YZUl4ojEWaB57wclvau-36" value="Check if user is logged in" style="rhombus;whiteSpace=wrap;html=1;" vertex="1" parent="1">
          <mxGeometry x="483.76" y="1360" width="202.49" height="80" as="geometry" />
        </mxCell>
        <mxCell id="5YZUl4ojEWaB57wclvau-44" style="edgeStyle=orthogonalEdgeStyle;rounded=0;orthogonalLoop=1;jettySize=auto;html=1;entryX=1;entryY=0.5;entryDx=0;entryDy=0;" edge="1" parent="1" source="5YZUl4ojEWaB57wclvau-38" target="5YZUl4ojEWaB57wclvau-41">
          <mxGeometry relative="1" as="geometry">
            <Array as="points">
              <mxPoint x="820" y="1520" />
            </Array>
          </mxGeometry>
        </mxCell>
        <mxCell id="5YZUl4ojEWaB57wclvau-38" value="Echo comment form to allow user to add comments" style="rounded=0;whiteSpace=wrap;html=1;" vertex="1" parent="1">
          <mxGeometry x="760" y="1370" width="120" height="60" as="geometry" />
        </mxCell>
        <mxCell id="5YZUl4ojEWaB57wclvau-48" value="" style="edgeStyle=orthogonalEdgeStyle;rounded=0;orthogonalLoop=1;jettySize=auto;html=1;" edge="1" parent="1" source="5YZUl4ojEWaB57wclvau-41" target="5YZUl4ojEWaB57wclvau-47">
          <mxGeometry relative="1" as="geometry" />
        </mxCell>
        <mxCell id="5YZUl4ojEWaB57wclvau-41" value="Echo all accompanying comments relative to the blog post&amp;nbsp;" style="rounded=0;whiteSpace=wrap;html=1;" vertex="1" parent="1">
          <mxGeometry x="525.01" y="1490" width="120" height="60" as="geometry" />
        </mxCell>
        <mxCell id="5YZUl4ojEWaB57wclvau-49" style="edgeStyle=orthogonalEdgeStyle;rounded=0;orthogonalLoop=1;jettySize=auto;html=1;entryX=0;entryY=0.5;entryDx=0;entryDy=0;" edge="1" parent="1" source="5YZUl4ojEWaB57wclvau-47" target="5YZUl4ojEWaB57wclvau-28">
          <mxGeometry relative="1" as="geometry">
            <Array as="points">
              <mxPoint x="250" y="1620" />
              <mxPoint x="250" y="1010" />
            </Array>
          </mxGeometry>
        </mxCell>
        <mxCell id="5YZUl4ojEWaB57wclvau-47" value="Go to next row record." style="rounded=0;whiteSpace=wrap;html=1;" vertex="1" parent="1">
          <mxGeometry x="525.01" y="1590" width="120" height="60" as="geometry" />
        </mxCell>
        <mxCell id="5YZUl4ojEWaB57wclvau-50" value="For loop terminates, all available blog posts and comments echoed with corresponding permissions." style="ellipse;whiteSpace=wrap;html=1;" vertex="1" parent="1">
          <mxGeometry x="437.51" y="1700" width="295" height="80" as="geometry" />
        </mxCell>
      </root>
    </mxGraphModel>
  </diagram>
</mxfile>
